<svg id="Capa_1" enable-background="new 0 0 512 512" height="512" viewBox="0 0 512 512" width="512" xmlns="http://www.w3.org/2000/svg"><g><path d="m474.427 116.222h-83.32c-4.151 0-7.515 3.364-7.515 7.515s3.364 7.515 7.515 7.515h83.32c12.43 0 22.544 10.113 22.544 22.544v276.593c0 12.431-10.114 22.544-22.544 22.544h-83.32c-4.151 0-7.515 3.364-7.515 7.515s3.364 7.515 7.515 7.515h83.32c20.718 0 37.573-16.855 37.573-37.573v-276.595c0-20.718-16.855-37.573-37.573-37.573z"/><path d="m361.048 452.932h-323.475c-12.43 0-22.544-10.113-22.544-22.544v-276.593c0-12.431 10.114-22.544 22.544-22.544h323.475c4.151 0 7.515-3.364 7.515-7.515s-3.364-7.515-7.515-7.515h-214.439l234.195-57.367c4.031-.987 6.499-5.055 5.511-9.086-.987-4.031-5.064-6.504-9.086-5.511l-293.786 71.965h-45.87c-20.718 0-37.573 16.855-37.573 37.573v276.593c0 20.718 16.855 37.573 37.573 37.573h323.475c4.151 0 7.515-3.364 7.515-7.515s-3.364-7.514-7.515-7.514z"/><path d="m132.442 431.392h336.389c4.151 0 7.515-3.364 7.515-7.515v-263.572c0-4.151-3.364-7.515-7.515-7.515h-425.663c-4.151 0-7.515 3.364-7.515 7.515v263.572c0 4.151 3.364 7.515 7.515 7.515h59.215c4.151 0 7.515-3.364 7.515-7.515s-3.364-7.515-7.515-7.515h-51.7v-248.542h410.634v248.543h-328.875c-4.151 0-7.515 3.364-7.515 7.515s3.365 7.514 7.515 7.514z"/><path d="m76.834 292.088c0 4.151 3.364 7.515 7.515 7.515h184.644c4.151 0 7.515-3.364 7.515-7.515s-3.364-7.515-7.515-7.515h-184.645c-4.15 0-7.514 3.364-7.514 7.515z"/><path d="m82.398 260.448c0 4.151 3.364 7.515 7.515 7.515h173.515c4.151 0 7.515-3.364 7.515-7.515s-3.364-7.515-7.515-7.515h-173.515c-4.151 0-7.515 3.364-7.515 7.515z"/><path d="m101.934 228.807c0 4.151 3.364 7.515 7.515 7.515h134.443c4.151 0 7.515-3.364 7.515-7.515s-3.364-7.515-7.515-7.515h-134.443c-4.151 0-7.515 3.364-7.515 7.515z"/><path d="m89.913 331.242h173.515c4.151 0 7.515-3.364 7.515-7.515s-3.364-7.515-7.515-7.515h-173.515c-4.151 0-7.515 3.364-7.515 7.515s3.364 7.515 7.515 7.515z"/><path d="m109.448 362.883h134.439c4.151 0 7.515-3.364 7.515-7.515s-3.364-7.515-7.515-7.515h-134.439c-4.151 0-7.515 3.364-7.515 7.515s3.365 7.515 7.515 7.515z"/><path d="m204.249 207.281c4.151 0 7.515-3.364 7.515-7.515s-3.364-7.515-7.515-7.515h-55.157c-4.151 0-7.515 3.364-7.515 7.515s3.364 7.515 7.515 7.515z"/><path d="m149.092 376.895c-4.151 0-7.515 3.364-7.515 7.515s3.364 7.515 7.515 7.515h55.157c4.151 0 7.515-3.364 7.515-7.515s-3.364-7.515-7.515-7.515z"/><path d="m413.007 192.251h-88.574c-10.816 0-19.616 8.799-19.616 19.615v36.48c0 10.816 8.799 19.615 19.616 19.615h88.574c10.816 0 19.616-8.799 19.616-19.615v-36.48c-.001-10.815-8.8-19.615-19.616-19.615zm4.586 56.096c0 2.528-2.058 4.586-4.586 4.586h-88.574c-2.528 0-4.586-2.058-4.586-4.586v-36.48c0-2.528 2.058-4.586 4.586-4.586h88.574c2.528 0 4.586 2.058 4.586 4.586z"/><path d="m312.332 316.053h20.595c4.151 0 7.515-3.364 7.515-7.515s-3.364-7.515-7.515-7.515h-20.595c-4.151 0-7.515 3.364-7.515 7.515 0 4.152 3.364 7.515 7.515 7.515z"/><path d="m386.531 308.539c0-4.151-3.364-7.515-7.515-7.515h-20.594c-4.151 0-7.515 3.364-7.515 7.515s3.364 7.515 7.515 7.515h20.594c4.151-.001 7.515-3.364 7.515-7.515z"/><path d="m425.108 316.053c4.151 0 7.515-3.364 7.515-7.515s-3.364-7.515-7.515-7.515h-20.595c-4.151 0-7.515 3.364-7.515 7.515s3.364 7.515 7.515 7.515z"/><path d="m333.154 391.924c15.625 0 28.337-12.711 28.337-28.337 0-15.625-12.711-28.337-28.337-28.337-15.625 0-28.337 12.711-28.337 28.337s12.711 28.337 28.337 28.337zm0-41.644c7.338 0 13.307 5.97 13.307 13.307 0 7.338-5.97 13.307-13.307 13.307-7.338 0-13.307-5.97-13.307-13.307-.001-7.337 5.969-13.307 13.307-13.307z"/><path d="m404.513 391.924c15.625 0 28.337-12.711 28.337-28.337 0-15.625-12.711-28.337-28.337-28.337-15.625 0-28.337 12.711-28.337 28.337s12.712 28.337 28.337 28.337zm0-41.644c7.338 0 13.307 5.97 13.307 13.307 0 7.338-5.97 13.307-13.307 13.307-7.338 0-13.307-5.97-13.307-13.307s5.969-13.307 13.307-13.307z"/></g></svg>